<?xml version="1.0" encoding="iso-8859-1"?>
<!-- Generator: Adobe Illustrator 18.1.1, SVG Export Plug-In . SVG Version: 6.00 Build 0)  -->
<svg version="1.1" id="Capa_1" xmlns="http://www.w3.org/2000/svg" xmlns:xlink="http://www.w3.org/1999/xlink" x="0px" y="0px"
	 viewBox="0 0 59.253 59.253" style="enable-background:new 0 0 59.253 59.253;" xml:space="preserve">
<g>
	<g>
		<path style="fill:#010002;" d="M43.519,4.149h-7.881V2.81c0-1.552-1.259-2.81-2.811-2.81h-6.4c-1.553,0-2.81,1.258-2.81,2.81
			v1.339h-7.881c-3.575,0-6.484,2.909-6.484,6.483v42.14c0,3.573,2.909,6.481,6.484,6.481h27.782c3.574,0,6.483-2.908,6.483-6.481
			v-42.14C50.003,7.058,47.096,4.149,43.519,4.149z M29.628,1.268c0.774,0,1.402,0.628,1.402,1.402c0,0.773-0.628,1.401-1.402,1.401
			s-1.401-0.628-1.401-1.401C28.226,1.896,28.853,1.268,29.628,1.268z M22.042,8.131h15.173v5.921H22.042V8.131z M43.521,55.548
			H15.737c-1.533,0-2.78-1.246-2.78-2.776v-42.14c0-1.532,1.247-2.779,2.78-2.779h2.65v6.62c0,1.782,1.449,3.231,3.232,3.231h16.018
			c1.782,0,3.231-1.449,3.231-3.231v-6.62h2.651c1.531,0,2.777,1.247,2.777,2.779v42.14h0.002
			C46.299,54.302,45.053,55.548,43.521,55.548z"/>
		<path style="fill:#010002;" d="M23.233,23.929l-0.649,0.774c-0.219-0.558-0.759-0.955-1.394-0.955h-4.312
			c-0.827,0-1.5,0.673-1.5,1.5v4.75c0,0.827,0.673,1.5,1.5,1.5h4.312c0.827,0,1.5-0.673,1.5-1.5v-2.54l1.962-2.34
			c0.329-0.392,0.277-0.975-0.114-1.305C24.145,23.488,23.562,23.539,23.233,23.929z M21.691,29.999L21.691,29.999
			c-0.001,0.275-0.226,0.5-0.501,0.5h-4.312c-0.275,0-0.5-0.226-0.5-0.5v-4.75c0-0.275,0.225-0.5,0.5-0.5h4.312
			c0.275,0,0.5,0.225,0.5,0.5v0.521l-1.249,1.489c-0.328,0.393-0.898,0.427-1.272,0.079l-0.77-0.713
			c-0.373-0.349-0.963-0.327-1.308,0.048c-0.349,0.374-0.326,0.96,0.049,1.309l2.16,2.007c0.171,0.16,0.398,0.247,0.63,0.247
			c0.02,0,0.037,0,0.059-0.001c0.253-0.017,0.488-0.136,0.651-0.329l1.051-1.253C21.691,28.653,21.691,29.999,21.691,29.999z"/>
		<path style="fill:#010002;" d="M23.233,34.002l-0.717,0.854c-0.249-0.481-0.747-0.815-1.326-0.815h-4.312
			c-0.827,0-1.5,0.674-1.5,1.5v4.75c0,0.827,0.673,1.5,1.5,1.5h4.312c0.827,0,1.5-0.673,1.5-1.5v-2.759l1.962-2.34
			c0.329-0.392,0.277-0.976-0.114-1.306C24.145,33.559,23.562,33.611,23.233,34.002z M21.691,40.291L21.691,40.291
			c-0.001,0.275-0.226,0.5-0.501,0.5h-4.312c-0.275,0-0.5-0.225-0.5-0.5v-4.75c0-0.274,0.225-0.5,0.5-0.5h4.312
			c0.275,0,0.5,0.226,0.5,0.5v0.301l-1.249,1.49c-0.328,0.391-0.898,0.428-1.272,0.078l-0.77-0.713
			c-0.373-0.35-0.963-0.327-1.308,0.048c-0.349,0.375-0.326,0.962,0.049,1.31l2.16,2.007c0.171,0.161,0.398,0.248,0.63,0.248
			c0.02,0,0.037,0,0.059-0.003c0.253-0.016,0.488-0.135,0.651-0.328l1.051-1.253C21.691,38.726,21.691,40.291,21.691,40.291z"/>
		<path style="fill:#010002;" d="M23.233,44.127l-0.744,0.887c-0.258-0.453-0.74-0.764-1.299-0.764h-4.312
			c-0.827,0-1.5,0.672-1.5,1.5v4.75c0,0.826,0.673,1.5,1.5,1.5h4.312c0.827,0,1.5-0.674,1.5-1.5v-2.845l1.962-2.34
			c0.329-0.392,0.277-0.976-0.114-1.306C24.145,43.683,23.562,43.735,23.233,44.127z M21.691,50.5L21.691,50.5
			C21.69,50.774,21.465,51,21.19,51h-4.312c-0.275,0-0.5-0.226-0.5-0.5v-4.75c0-0.275,0.225-0.5,0.5-0.5h4.312
			c0.275,0,0.5,0.225,0.5,0.5v0.217l-1.249,1.488c-0.328,0.393-0.898,0.428-1.272,0.08l-0.77-0.714
			c-0.373-0.349-0.963-0.327-1.308,0.048c-0.349,0.375-0.326,0.961,0.049,1.309l2.16,2.008c0.171,0.16,0.398,0.248,0.63,0.248
			c0.02,0,0.037,0,0.059-0.002c0.253-0.016,0.488-0.135,0.651-0.329l1.051-1.253C21.691,48.85,21.691,50.5,21.691,50.5z"/>
		<path style="fill:#010002;" d="M43.236,26.993H28.265c-0.513,0-0.927,0.413-0.927,0.925c0,0.514,0.414,0.927,0.927,0.927h14.972
			c0.513,0,0.927-0.413,0.927-0.927C44.163,27.406,43.749,26.993,43.236,26.993z"/>
		<path style="fill:#010002;" d="M43.236,36.063H28.265c-0.513,0-0.927,0.414-0.927,0.927c0,0.512,0.414,0.926,0.927,0.926h14.972
			c0.513,0,0.927-0.414,0.927-0.926C44.163,36.477,43.749,36.063,43.236,36.063z"/>
		<path style="fill:#010002;" d="M43.236,45.134H28.265c-0.513,0-0.927,0.414-0.927,0.928c0,0.511,0.414,0.925,0.927,0.925h14.972
			c0.513,0,0.927-0.414,0.927-0.925C44.163,45.548,43.749,45.134,43.236,45.134z"/>
	</g>
</g>
<g>
</g>
<g>
</g>
<g>
</g>
<g>
</g>
<g>
</g>
<g>
</g>
<g>
</g>
<g>
</g>
<g>
</g>
<g>
</g>
<g>
</g>
<g>
</g>
<g>
</g>
<g>
</g>
<g>
</g>
</svg>
