<?xml version="1.0" encoding="iso-8859-1"?>
<!-- Generator: Adobe Illustrator 19.0.0, SVG Export Plug-In . SVG Version: 6.00 Build 0)  -->
<svg version="1.1" id="Layer_1" xmlns="http://www.w3.org/2000/svg" xmlns:xlink="http://www.w3.org/1999/xlink" x="0px" y="0px"
	 viewBox="0 0 512 512" style="enable-background:new 0 0 512 512;" xml:space="preserve">
<g>
	<g>
		<path d="M242.288,344.571l-12.722,82.262c-2.134,13.797,7.322,26.714,21.12,28.847c13.799,2.132,26.713-7.326,28.847-21.12
			l13.916-89.988H242.288z"/>
	</g>
</g>
<g>
	<g>
		<path d="M177.857,426.833l-12.722-82.262h-51.162l13.916,89.988c2.133,13.796,15.045,23.252,28.847,21.12
			C170.534,453.546,179.99,440.631,177.857,426.833z"/>
	</g>
</g>
<g>
	<g>
		<path d="M205.095,0c-24.164,0-43.662,19.582-43.662,43.662c0,24.087,19.521,43.662,43.662,43.662
			c24.093,0,43.662-19.518,43.662-43.662C248.758,19.503,229.176,0,205.095,0z"/>
	</g>
</g>
<g>
	<g>
		<path d="M474.322,286.458c0-5.095-4.13-9.225-9.225-9.225h-66.329c1.215-1.929,1.929-4.206,1.929-6.654
			c0-6.906-5.606-12.515-12.515-12.515h-29.039c0-10.804,0-19.068,0-29.941h56.811c5.743,0,10.398-4.655,10.398-10.397v-91.356
			c0-5.743-4.655-10.397-10.398-10.397H261.546c-5.743,0-10.397,4.655-10.397,10.397v91.356c0,5.743,4.655,10.397,10.397,10.397
			h56.811c0,10.878,0,19.134,0,29.941h-29.039c-6.89,0-12.515,5.591-12.515,12.515c0,2.448,0.714,4.725,1.929,6.654H46.903
			c-5.095,0-9.225,4.13-9.225,9.225v33.35c0,5.095,4.13,9.225,9.225,9.225h14.454c0,6.513,0,156.787,0,164.195
			c0,10.368,8.404,18.772,18.772,18.772S98.9,503.596,98.9,493.228c0-7.415,0-157.686,0-164.195h314.113
			c0,6.513,0,156.787,0,164.195c0,10.368,8.404,18.772,18.772,18.772s18.772-8.404,18.772-18.772c0-7.415,0-157.686,0-164.195h14.54
			c5.095,0,9.225-4.13,9.225-9.225L474.322,286.458L474.322,286.458z M338.75,189.255c-9.503,0-17.207-7.704-17.207-17.207
			c-0.001-9.502,7.703-17.207,17.207-17.207c9.503,0,17.207,7.704,17.207,17.207S348.254,189.255,338.75,189.255z"/>
	</g>
</g>
<g>
	<g>
		<path d="M236.13,217.728c0-9.19,0-79.936,0-91.356c0-12.79,9.506-23.374,21.818-25.13c-11.694,0-94.092,0-107.351,0
			c-18.294,0-35.282,10.627-43.281,27.074c-11.684,24.035-24.892,54.041-30.546,68.158c-4.219,10.542,0.675,22.53,11.066,27.107
			l73.739,32.482c10.644,4.69,23.082-0.139,27.772-10.787c4.69-10.647-0.14-23.082-10.787-27.772l-54.749-24.116
			c6.208-14.264,14.123-31.686,21.398-46.649c0.349-0.715-0.006-1.1,0.771-0.932c0.777,0.169,1.34,0.847,1.361,1.643l2.188,39.729
			l35.5,15.637c18.76,8.263,27.269,30.17,19.006,48.93c-1.651,3.747-3.859,7.07-6.466,9.947h63.548V243.12
			C247.302,242.889,236.13,231.597,236.13,217.728z"/>
	</g>
</g>
<g>
</g>
<g>
</g>
<g>
</g>
<g>
</g>
<g>
</g>
<g>
</g>
<g>
</g>
<g>
</g>
<g>
</g>
<g>
</g>
<g>
</g>
<g>
</g>
<g>
</g>
<g>
</g>
<g>
</g>
</svg>
